<?xml version="1.0" encoding="UTF-8" standalone="no"?>
<!-- Created with Inkscape (http://www.inkscape.org/) -->

<svg
   width="64"
   height="64"
   viewBox="0 0 16.933333 16.933333"
   version="1.1"
   id="svg1"
   xml:space="preserve"
   inkscape:version="1.4 (86a8ad7, 2024-10-11)"
   sodipodi:docname="Help.svg"
   inkscape:export-filename="Help_24x24.png"
   inkscape:export-xdpi="36"
   inkscape:export-ydpi="36"
   xmlns:inkscape="http://www.inkscape.org/namespaces/inkscape"
   xmlns:sodipodi="http://sodipodi.sourceforge.net/DTD/sodipodi-0.dtd"
   xmlns:xlink="http://www.w3.org/1999/xlink"
   xmlns="http://www.w3.org/2000/svg"
   xmlns:svg="http://www.w3.org/2000/svg"><sodipodi:namedview
     id="namedview1"
     pagecolor="#ffffff"
     bordercolor="#000000"
     borderopacity="0.25"
     inkscape:showpageshadow="2"
     inkscape:pageopacity="0.0"
     inkscape:pagecheckerboard="0"
     inkscape:deskcolor="#d1d1d1"
     inkscape:document-units="px"
     showgrid="true"
     inkscape:zoom="5.6568543"
     inkscape:cx="-26.074562"
     inkscape:cy="50.116193"
     inkscape:window-width="2560"
     inkscape:window-height="1369"
     inkscape:window-x="-8"
     inkscape:window-y="-8"
     inkscape:window-maximized="1"
     inkscape:current-layer="layer1"><inkscape:grid
       id="grid1"
       units="px"
       originx="0"
       originy="0"
       spacingx="0.26458333"
       spacingy="0.26458333"
       empcolor="#0099e5"
       empopacity="0.30196078"
       color="#0099e5"
       opacity="0.14901961"
       empspacing="5"
       enabled="true"
       visible="true" /></sodipodi:namedview><defs
     id="defs1"><linearGradient
       id="linearGradient16"
       inkscape:collect="always"><stop
         style="stop-color:#64d900;stop-opacity:1;"
         offset="0"
         id="stop17" /><stop
         style="stop-color:#07a400;stop-opacity:1;"
         offset="1"
         id="stop18" /></linearGradient><linearGradient
       id="linearGradient15"
       inkscape:collect="always"><stop
         style="stop-color:#07d400;stop-opacity:1;"
         offset="0"
         id="stop15" /><stop
         style="stop-color:#07a400;stop-opacity:1;"
         offset="1"
         id="stop16" /></linearGradient><filter
       inkscape:collect="always"
       style="color-interpolation-filters:sRGB"
       id="filter10"
       x="-0.0036390722"
       y="-0.0034708096"
       width="1.0072781"
       height="1.0069416"><feGaussianBlur
         inkscape:collect="always"
         stdDeviation="0.013188844"
         id="feGaussianBlur10" /></filter><filter
       inkscape:collect="always"
       style="color-interpolation-filters:sRGB"
       id="filter11"
       x="-0.060097855"
       y="-0.057401002"
       width="1.1202816"
       height="1.114802"><feGaussianBlur
         inkscape:collect="always"
         stdDeviation="0.052755378"
         id="feGaussianBlur11" /></filter><filter
       inkscape:collect="always"
       style="color-interpolation-filters:sRGB"
       id="filter1"
       x="-0.05449545"
       y="-0.054495417"
       width="1.2798098"
       height="1.2798097"><feGaussianBlur
         inkscape:collect="always"
         stdDeviation="0.052755378"
         id="feGaussianBlur1" /></filter><filter
       inkscape:collect="always"
       style="color-interpolation-filters:sRGB"
       id="filter2"
       x="-0.013623861"
       y="-0.013623853"
       width="1.0272477"
       height="1.0272477"><feGaussianBlur
         inkscape:collect="always"
         stdDeviation="0.013188844"
         id="feGaussianBlur2" /></filter><filter
       inkscape:collect="always"
       style="color-interpolation-filters:sRGB"
       id="filter3"
       x="-0.065397716"
       y="-0.057567072"
       width="1.128449"
       height="1.0788674"><feGaussianBlur
         inkscape:collect="always"
         stdDeviation="0.052755378"
         id="feGaussianBlur3" /></filter><filter
       inkscape:collect="always"
       style="color-interpolation-filters:sRGB"
       id="filter4"
       x="-0.22531438"
       y="-0.22531376"
       width="1.2798098"
       height="1.2798091"><feGaussianBlur
         inkscape:collect="always"
         stdDeviation="0.052755378"
         id="feGaussianBlur4" /></filter><filter
       inkscape:collect="always"
       style="color-interpolation-filters:sRGB"
       id="filter5"
       x="-0.22531438"
       y="-0.22531424"
       width="1.4506288"
       height="1.4506285"><feGaussianBlur
         inkscape:collect="always"
         stdDeviation="0.052755378"
         id="feGaussianBlur5" /></filter><filter
       inkscape:collect="always"
       style="color-interpolation-filters:sRGB"
       id="filter12"
       x="-0.018340748"
       y="-0.055439251"
       width="1.0774991"
       height="1.1231012"><feGaussianBlur
         inkscape:collect="always"
         stdDeviation="0.044426701"
         id="feGaussianBlur12" /></filter><radialGradient
       inkscape:collect="always"
       xlink:href="#linearGradient15"
       id="radialGradient16"
       cx="7.9374995"
       cy="12.62667"
       fx="7.9374995"
       fy="12.62667"
       r="1.1933365"
       gradientTransform="matrix(1.5680528,0.03919552,-0.0427871,1.7117542,-3.9686612,-9.2982001)"
       gradientUnits="userSpaceOnUse" /><radialGradient
       inkscape:collect="always"
       xlink:href="#linearGradient16"
       id="radialGradient18"
       cx="6.614583"
       cy="4.0809412"
       fx="6.614583"
       fy="4.0809412"
       r="4.380732"
       gradientTransform="matrix(1.8119117,1.2079412,-0.58139744,0.87209611,-2.9978084,-7.5802505)"
       gradientUnits="userSpaceOnUse" /></defs><g
     inkscape:label="Warstwa 1"
     inkscape:groupmode="layer"
     id="layer1"><g
       id="g11"><path
         style="font-weight:bold;font-size:16.9333px;font-family:Arial;-inkscape-font-specification:'Arial Bold';text-align:center;letter-spacing:0px;text-anchor:middle;fill:none;fill-opacity:1;stroke-width:0.79375;stroke-linejoin:bevel;paint-order:markers stroke fill;stroke:#008900;stroke-opacity:1;filter:url(#filter11)"
         d="M 9.0702526,10.971922 H 6.961859 q -0.00827,-0.454752 -0.00827,-0.55397 0,-1.0252589 0.3389967,-1.6867159 Q 7.6315825,8.069779 8.6485719,7.2429578 9.6655613,6.4161365 9.8639983,6.1598219 10.169922,5.7546794 10.169922,5.2668549 q 0,-0.6779935 -0.5457017,-1.1575498 -0.5374337,-0.4878246 -1.4552041,-0.4878246 -0.8846987,0 -1.48001,0.504361 -0.5953114,0.504361 -0.8185531,1.5378876 L 3.737256,5.3991463 Q 3.828206,3.9191362 4.9940243,2.8856096 6.1681106,1.8520829 8.0697992,1.8520829 q 2.0009068,0 3.1832608,1.0500631 1.182354,1.0417948 1.182354,2.4308546 0,0.7689438 -0.438215,1.4552054 -0.429947,0.6862617 -1.85208,1.8686162 -0.7358694,0.6118477 -0.9177704,0.9839173 -0.173633,0.3720695 -0.157096,1.3311825 z"
         id="path4" /><path
         style="font-weight:bold;font-size:16.9333px;font-family:Arial;-inkscape-font-specification:'Arial Bold';text-align:center;letter-spacing:0px;text-anchor:middle;fill:none;fill-opacity:1;stroke:#005b00;stroke-width:0.79375;stroke-linejoin:bevel;stroke-opacity:1;paint-order:markers stroke fill;filter:url(#filter12)"
         d="m 11.459763,3.5305268 c 0.115755,0.363801 1.209918,1.7087653 0.537436,3.2576792 -0.286631,0.4575078 -0.903991,1.0803799 -1.85208,1.8686162 C 9.6545394,9.0647207 9.3486159,9.3926931 9.2273486,9.6407395 9.1115933,9.8887858 9.0592279,10.332513 9.0702526,10.971922 H 6.961859 c -0.00551,-0.303168 -0.00827,-0.487825 -0.00827,-0.55397 M 10.748698,5.2007091 C 10.153386,3.8164385 9.5375,3.6214805 8.1690162,3.6214805 c -0.5897991,0 -1.0831358,0.1681203 -1.48001,0.504361 C 6.2921319,4.4620822 6.0192809,4.9747114 5.8704531,5.6637291 L 3.737256,5.3991463"
         id="path11"
         sodipodi:nodetypes="ccccccccsscc" /><path
         style="font-weight:bold;font-size:16.9333px;font-family:Arial;-inkscape-font-specification:'Arial Bold';text-align:center;letter-spacing:0px;text-anchor:middle;fill:none;fill-opacity:1;stroke:#b3ffa7;stroke-width:0.79375;stroke-linejoin:bevel;stroke-opacity:1;paint-order:markers stroke fill;filter:url(#filter3)"
         d="M 3.737256,5.3991463 3.746146,5.2826347 C 3.8067776,4.2959613 4.2168121,3.5746273 4.9940243,2.8856096 5.7767485,2.1965918 6.8020068,1.8520829 8.0697992,1.8520829 c 0.8673182,0 1.6192881,0.1479721 2.2559098,0.4439163 0.342504,0.1592188 1.051374,0.7746792 1.39864,1.8298447 M 6.9793986,10.945613 6.9593008,10.828421 c -0.00551,-0.303168 -0.00571,-0.344324 -0.00571,-0.410469 0,-0.6835059 0.1129989,-1.2457446 0.3389967,-1.6867159 C 7.5185836,8.2902647 7.970579,7.7941719 8.6485719,7.2429578 9.3265648,6.6917436 9.731707,6.3306983 9.8639983,6.1598219 10.057384,5.9037152 10.907444,4.2535748 10.583333,3.9687498"
         id="path12"
         sodipodi:nodetypes="cccsscccssscc" /></g><g
       id="g1"><path
         style="font-weight:bold;font-size:16.9333px;font-family:Arial;-inkscape-font-specification:'Arial Bold';text-align:center;letter-spacing:0px;text-anchor:middle;fill:#07a400;fill-opacity:1;stroke-width:0.79375;stroke-linejoin:bevel;paint-order:markers stroke fill;stroke:#008900;stroke-opacity:1;filter:url(#filter5)"
         d="m 6.961859,14.256076 v -2.323368 h 2.3233666 v 2.323368 z"
         id="path5" /><path
         style="font-weight:bold;font-size:16.9333px;font-family:Arial;-inkscape-font-specification:'Arial Bold';text-align:center;letter-spacing:0px;text-anchor:middle;fill:#07a400;fill-opacity:1;stroke:#005b00;stroke-width:0.79375;stroke-linejoin:bevel;stroke-opacity:1;paint-order:markers stroke fill;filter:url(#filter1)"
         d="m 9.2852256,11.932708 v 2.323368 H 6.961859"
         id="path2"
         sodipodi:nodetypes="ccc" /><path
         style="font-weight:bold;font-size:16.9333px;font-family:Arial;-inkscape-font-specification:'Arial Bold';text-align:center;letter-spacing:0px;text-anchor:middle;mix-blend-mode:normal;fill:#07a400;fill-opacity:1;stroke:#b3ffa7;stroke-width:0.79375;stroke-linejoin:bevel;stroke-opacity:1;paint-order:markers stroke fill;filter:url(#filter4)"
         d="m 6.961859,14.256076 -5e-7,-2.323373 h 2.3233666"
         id="path3"
         sodipodi:nodetypes="ccc" /></g><path
       style="font-weight:bold;font-size:16.9333px;font-family:Arial;-inkscape-font-specification:'Arial Bold';text-align:center;letter-spacing:0px;text-anchor:middle;fill:url(#radialGradient16);fill-opacity:1;stroke-width:0.79375;stroke-linejoin:bevel;paint-order:markers stroke fill;filter:url(#filter2);stroke:none"
       d="m 6.961859,14.256076 v -2.323368 h 2.3233666 v 2.323368 z"
       id="path1" /><path
       style="font-weight:bold;font-size:16.9333px;font-family:Arial;-inkscape-font-specification:'Arial Bold';text-align:center;letter-spacing:0px;text-anchor:middle;fill:url(#radialGradient18);fill-opacity:1;stroke-width:0.79375;stroke-linejoin:bevel;paint-order:markers stroke fill;filter:url(#filter10)"
       d="M 9.0702526,10.971922 H 6.961859 q -0.00827,-0.454752 -0.00827,-0.55397 0,-1.0252589 0.3389967,-1.6867159 Q 7.6315825,8.069779 8.6485719,7.2429578 9.6655613,6.4161365 9.8639983,6.1598219 10.169922,5.7546794 10.169922,5.2668549 q 0,-0.6779935 -0.5457017,-1.1575498 -0.5374337,-0.4878246 -1.4552041,-0.4878246 -0.8846987,0 -1.48001,0.504361 -0.5953114,0.504361 -0.8185531,1.5378876 L 3.737256,5.3991463 Q 3.828206,3.9191362 4.9940243,2.8856096 6.1681106,1.8520829 8.0697992,1.8520829 q 2.0009068,0 3.1832608,1.0500631 1.182354,1.0417948 1.182354,2.4308546 0,0.7689438 -0.438215,1.4552054 -0.429947,0.6862617 -1.85208,1.8686162 -0.7358694,0.6118477 -0.9177704,0.9839173 -0.173633,0.3720695 -0.157096,1.3311825 z"
       id="path8" /></g></svg>
