<?xml version="1.0" encoding="UTF-8" standalone="no"?>
<!-- Created with Inkscape (http://www.inkscape.org/) -->

<svg
   width="64"
   height="64"
   viewBox="0 0 16.933333 16.933333"
   version="1.1"
   id="svg1"
   xml:space="preserve"
   inkscape:version="1.4 (86a8ad7, 2024-10-11)"
   sodipodi:docname="Padlock.svg"
   inkscape:export-filename="Padlock_open_24x24.png"
   inkscape:export-xdpi="36"
   inkscape:export-ydpi="36"
   xmlns:inkscape="http://www.inkscape.org/namespaces/inkscape"
   xmlns:sodipodi="http://sodipodi.sourceforge.net/DTD/sodipodi-0.dtd"
   xmlns:xlink="http://www.w3.org/1999/xlink"
   xmlns="http://www.w3.org/2000/svg"
   xmlns:svg="http://www.w3.org/2000/svg"><sodipodi:namedview
     id="namedview1"
     pagecolor="#ffffff"
     bordercolor="#000000"
     borderopacity="0.25"
     inkscape:showpageshadow="2"
     inkscape:pageopacity="0.0"
     inkscape:pagecheckerboard="0"
     inkscape:deskcolor="#d1d1d1"
     inkscape:document-units="px"
     showgrid="true"
     inkscape:zoom="8"
     inkscape:cx="58.25"
     inkscape:cy="41.3125"
     inkscape:window-width="2560"
     inkscape:window-height="1369"
     inkscape:window-x="-8"
     inkscape:window-y="-8"
     inkscape:window-maximized="1"
     inkscape:current-layer="g11"><inkscape:grid
       id="grid1"
       units="px"
       originx="0"
       originy="0"
       spacingx="0.26458333"
       spacingy="0.26458333"
       empcolor="#0099e5"
       empopacity="0.30196078"
       color="#0099e5"
       opacity="0.14901961"
       empspacing="5"
       enabled="true"
       visible="true" /></sodipodi:namedview><defs
     id="defs1"><linearGradient
       id="linearGradient17"
       inkscape:collect="always"><stop
         style="stop-color:#fafcff;stop-opacity:1;"
         offset="0"
         id="stop17" /><stop
         style="stop-color:#d4d3d4;stop-opacity:1;"
         offset="1"
         id="stop18" /></linearGradient><inkscape:path-effect
       effect="fillet_chamfer"
       id="path-effect5"
       is_visible="true"
       lpeversion="1"
       nodesatellites_param="F,0,0,1,0,0,0,1 @ F,0,0,1,0,0,0,1 @ F,0,0,1,0,0,0,1 @ F,0,0,1,0,0,0,1 @ F,0,0,1,0,0,0,1 @ F,0,0,1,0,1.2396706,0,1 @ F,0,0,1,0,0,0,1"
       radius="0"
       unit="px"
       method="auto"
       mode="F"
       chamfer_steps="1"
       flexible="false"
       use_knot_distance="true"
       apply_no_radius="true"
       apply_with_radius="true"
       only_selected="false"
       hide_knots="false" /><filter
       inkscape:collect="always"
       style="color-interpolation-filters:sRGB"
       id="filter8"
       x="-0.028781955"
       y="-0.026142563"
       width="1.0575639"
       height="1.0522851"><feGaussianBlur
         inkscape:collect="always"
         stdDeviation="0.081859044"
         id="feGaussianBlur8" /></filter><filter
       inkscape:collect="always"
       style="color-interpolation-filters:sRGB"
       id="filter9"
       x="-0.031690624"
       y="-0.023183201"
       width="1.0633812"
       height="1.0463664"><feGaussianBlur
         inkscape:collect="always"
         stdDeviation="0.065413729"
         id="feGaussianBlur9" /></filter><filter
       inkscape:collect="always"
       style="color-interpolation-filters:sRGB"
       id="filter10"
       x="-0.049813324"
       y="-0.030820334"
       width="1.0996266"
       height="1.0616407"><feGaussianBlur
         inkscape:collect="always"
         stdDeviation="0.045119844"
         id="feGaussianBlur10" /></filter><filter
       inkscape:collect="always"
       style="color-interpolation-filters:sRGB"
       id="filter11"
       x="-0.070948908"
       y="-0.035137008"
       width="1.1418978"
       height="1.070274"><feGaussianBlur
         inkscape:collect="always"
         stdDeviation="0.028695087"
         id="feGaussianBlur11" /></filter><filter
       inkscape:collect="always"
       style="color-interpolation-filters:sRGB"
       id="filter16"
       x="-0.0049119774"
       y="-0.0068760175"
       width="1.009824"
       height="1.013752"><feGaussianBlur
         inkscape:collect="always"
         stdDeviation="0.024050119"
         id="feGaussianBlur16" /></filter><filter
       inkscape:collect="always"
       style="color-interpolation-filters:sRGB"
       id="filter17"
       x="-0.030353094"
       y="-0.024314039"
       width="1.0607062"
       height="1.0486281"><feGaussianBlur
         inkscape:collect="always"
         stdDeviation="0.10642059"
         id="feGaussianBlur17" /></filter><radialGradient
       inkscape:collect="always"
       xlink:href="#linearGradient17"
       id="radialGradient18"
       cx="7.276042"
       cy="10.331153"
       fx="7.276042"
       fy="10.331153"
       r="5.9531232"
       gradientTransform="matrix(0.66436381,0.74740935,-0.80000023,0.71111128,11.305241,-2.5964118)"
       gradientUnits="userSpaceOnUse" /><filter
       inkscape:collect="always"
       style="color-interpolation-filters:sRGB"
       id="filter22"
       x="-0.021784991"
       y="-0.024541264"
       width="1.04357"
       height="1.0490825"><feGaussianBlur
         inkscape:collect="always"
         stdDeviation="0.023857962"
         id="feGaussianBlur22" /></filter><filter
       inkscape:collect="always"
       style="color-interpolation-filters:sRGB"
       id="filter23"
       x="-0.042111147"
       y="-0.019869895"
       width="1.0842223"
       height="1.0397398"><feGaussianBlur
         inkscape:collect="always"
         stdDeviation="0.020861229"
         id="feGaussianBlur23" /></filter><filter
       inkscape:collect="always"
       style="color-interpolation-filters:sRGB"
       id="filter24"
       x="-0.04684969"
       y="-0.018831686"
       width="1.0936994"
       height="1.0376634"><feGaussianBlur
         inkscape:collect="always"
         stdDeviation="0.035174255"
         id="feGaussianBlur24" /></filter></defs><g
     inkscape:label="Warstwa 1"
     inkscape:groupmode="layer"
     id="layer1"
     style="display:inline"><g
       id="g11"
       transform="matrix(1.2938535,0,0,1.2973603,3.6279108,-0.06373362)"
       style="display:inline;stroke-width:0.77184"><path
         style="display:inline;fill:#d4d3d4;stroke:none;stroke-width:0.408435;stroke-linecap:round;stroke-linejoin:bevel;stroke-dasharray:none;stroke-opacity:1;paint-order:markers stroke fill"
         d="m 3.8359375,0.39648438 c -1.8917973,0 -3.4394567,1.54765432 -3.43945312,3.43945312 V 7.4082031 C 0.39612504,7.7740247 0.69277207,8.0706718 1.0585937,8.0703125 1.4244154,8.0706718 1.7210624,7.7740248 1.7207031,7.4082031 V 3.8359375 C 1.7207009,2.6591007 2.6590992,1.7207031 3.8359375,1.7207031 5.0127757,1.720703 5.953125,2.6590992 5.953125,3.8359375 l 3.75e-5,0.1896052 c 0,0 0.1539062,0.1632451 0.6610953,0.1632518 0.5071891,6.7e-6 0.6611703,-0.1632518 0.6611703,-0.1632518 l -3.75e-5,-0.1896052 c 0,-1.8917973 -1.5476557,-3.43945325 -3.4394531,-3.43945312 z"
         id="Rygiel"
         sodipodi:nodetypes="scccccscczccs" /><path
         style="mix-blend-mode:normal;fill:#959998;fill-opacity:1;stroke:none;stroke-width:0.204217;stroke-linecap:round;stroke-linejoin:bevel;stroke-dasharray:none;stroke-opacity:1;paint-order:markers stroke fill;filter:url(#filter9)"
         d="M 3.809543,1.1669397 C 2.0905804,1.1995983 1.1114442,2.7251011 1.190689,3.6778395 V 7.9382192 C 1.4806616,7.8693413 1.6946681,7.6419274 1.6943088,7.2761057 V 3.8096064 C 1.6943066,2.6327696 2.6327334,1.6861752 3.8095432,1.694372 5.0858446,1.7032618 5.9385788,2.6195021 6.1370162,3.9567128 6.2150104,1.6107782 4.8187878,1.147765 3.809543,1.1669397 Z"
         id="path9"
         sodipodi:nodetypes="sccccscs" /><path
         style="mix-blend-mode:normal;fill:#f7faff;fill-opacity:1;stroke:none;stroke-width:0.204217;stroke-linecap:round;stroke-linejoin:bevel;stroke-dasharray:none;stroke-opacity:1;paint-order:markers stroke fill;filter:url(#filter8)"
         d="m 3.8359375,0.44952707 c -1.8917973,0 -3.38641401,1.49461163 -3.38641043,3.38641043 v 3.4665094 c -3.5934e-4,0.3658216 0.21611679,0.6622713 0.3972698,0.6620934 L 0.84653643,3.8274866 c 1.3019e-4,-1.71082 1.27013017,-2.98081997 2.98940107,-2.98081995 1.7192709,3e-8 3.0432288,0.74083325 3.4394531,2.98927085 -10e-8,-1.8917973 -1.5476557,-3.38641056 -3.4394531,-3.38641043 z"
         id="path8"
         sodipodi:nodetypes="scccczcs" /><path
         style="mix-blend-mode:normal;fill:#959998;fill-opacity:1;stroke:none;stroke-width:0.204217;stroke-linecap:round;stroke-linejoin:bevel;stroke-dasharray:none;stroke-opacity:1;paint-order:markers stroke fill;filter:url(#filter10)"
         d="M 5.0512334,0.62969144 C 6.8107563,1.5708364 6.8786559,3.678359 6.8790302,3.8459275 l 6.209e-4,0.277935 c 0.2824713,-0.00973 0.3251233,0.071596 0.3338015,-0.0411 l 0.00907,-0.2468247 C 7.2728511,2.4659578 6.5880495,1.3229166 5.0512334,0.62969144 Z"
         id="path10"
         sodipodi:nodetypes="csccsc"
         transform="matrix(1.0000012,0,0,1,-5.9962321e-6,0.02654826)" /><path
         style="display:inline;mix-blend-mode:normal;fill:#f7faff;fill-opacity:1;stroke:none;stroke-width:0.10211;stroke-linecap:round;stroke-linejoin:bevel;stroke-dasharray:none;stroke-opacity:1;paint-order:markers stroke fill;filter:url(#filter11)"
         d="m 5.3541912,2.3107115 c 0.5291666,0.3720702 0.6518503,1.3075023 0.6518503,1.525226 v 0.2015538 c -3.593e-4,0.3658217 0.013572,0.2142339 0.318823,0.1243114 V 4.0001654 c 0,-0.041283 -0.075012,-1.214365 -0.9706733,-1.6894539 z"
         id="path11"
         sodipodi:nodetypes="csccsc" /><path
         style="fill:none;stroke:#000000;stroke-width:0.0204217;stroke-linecap:round;stroke-linejoin:bevel;stroke-dasharray:none;stroke-opacity:1;paint-order:markers stroke fill"
         d="m 3.8359375,0.39648438 c -1.8917973,0 -3.4394567,1.54765432 -3.43945312,3.43945312 V 7.4082031 C 0.39612504,7.7740247 0.69277207,8.0706718 1.0585937,8.0703125 1.4244154,8.0706718 1.7210624,7.7740248 1.7207031,7.4082031 V 3.8359375 c -2.2e-6,-1.1768368 0.9383961,-2.1152344 2.1152344,-2.1152344 1.1768382,-10e-8 2.1169264,0.9383961 2.1171875,2.1152344 l 3.75e-5,0.1690073 c 0.00904,0.2493291 0.1249766,0.1936703 0.6621258,0.193131 0.5371492,-5.394e-4 0.6876272,0.045747 0.6601562,-0.193131 L 7.2753906,3.8359375 C 7.2747872,1.9441403 5.7277349,0.39648425 3.8359375,0.39648438 Z"
         id="obrys_g"
         sodipodi:nodetypes="scccccssczcss" /></g><g
       id="g16"
       style="display:inline"
       transform="translate(-0.59821053,0.22959933)"><path
         id="path4"
         style="fill:url(#radialGradient18);stroke:#d4d3d4;stroke-width:1.05833;stroke-linejoin:bevel;stroke-dasharray:none;stroke-opacity:1;paint-order:markers stroke fill"
         d="m 3.7041666,6.3499984 v 5.1111126 c -1.2e-6,2.471809 2.4283879,4.41389 5.423958,4.41389 2.9955704,0 5.4239584,-1.942081 5.4239584,-4.41389 V 6.3499984 Z"
         sodipodi:nodetypes="ccsscc" /><path
         style="display:inline;mix-blend-mode:normal;fill:#f7faff;fill-opacity:1;stroke-linejoin:bevel;paint-order:markers stroke fill;filter:url(#filter16)"
         d="M 14.97621,6.2968186 14.552734,5.8732207 H 3.7578687 L 3.2285719,6.3496094 V 10.402605 C 3.1750016,13.369821 3.786912,13.3544 4.2664692,14.267656 3.684512,13.209322 3.5453535,12.435416 3.5453535,8.9429165 V 6.614583 L 3.9423546,6.1118749 14.552083,6.1383332"
         id="path14"
         sodipodi:nodetypes="cccccccccc" /><path
         style="display:inline;fill:#7d7d7e;stroke-linejoin:bevel;paint-order:markers stroke fill;filter:url(#filter17)"
         d="m 9.1289063,16.35125 c 3.2242817,0 5.9002857,-2.063751 5.9002857,-4.863981 V 6.3759402 L 14.499895,5.8466433 14.76375,6.3499997 v 5.0270833 c 0,1.322916 -0.529167,2.725208 -2.116667,3.783542 -1.797389,1.198259 -4.1804165,1.012 -6.0325,0.714374 0.7060521,0.334742 1.7082529,0.476251 2.5143233,0.476251 z"
         id="path15"
         sodipodi:nodetypes="sscccsscs" /><path
         style="fill:none;stroke:#000000;stroke-width:0.0264583;stroke-linejoin:bevel;stroke-dasharray:none;stroke-opacity:1;paint-order:markers stroke fill"
         d="M 3.7050781,5.8203125 3.1757813,6.3496094 v 5.1113286 c -1.4e-6,2.818388 2.7288435,4.943359 5.953125,4.943359 3.2242817,0 5.9531247,-2.124971 5.9531247,-4.943359 V 6.3496094 L 14.552734,5.8203125 Z"
         id="path13"
         sodipodi:nodetypes="cccssccc" /></g><g
       id="g24"
       style="display:inline"
       transform="translate(-0.67738637,0.22959933)"><path
         style="fill:#bbbbc6;stroke-linejoin:bevel;paint-order:markers stroke fill"
         d="m 9.2949219,9.3652344 c -0.7717807,-8.84e-5 -1.4063382,0.6344689 -1.40625,1.4062496 3.147e-4,0.508072 0.3160426,0.932432 0.7597656,1.175782 L 8.4492188,14.078125 8.84375,14.511719 H 9.7441406 L 10.140625,14.078125 9.9414063,11.947266 c 0.4432167,-0.243515 0.7594507,-0.668017 0.7597657,-1.175782 8.9e-5,-0.7717801 -0.63447,-1.4063373 -1.4062501,-1.4062496 z m 0,0.7929686 c 0.3427419,-3.9e-5 0.6113675,0.27054 0.6113281,0.613281 C 9.9060346,11.118589 9.7619407,11.329848 9.4667969,11.375 L 9.2949219,11.595703 9.1230469,11.375 C 8.8279062,11.32985 8.6818557,11.118609 8.6816406,10.771484 c -3.92e-5,-0.342743 0.2705387,-0.61332 0.6132813,-0.613281 z m 0,3.404297 0.013672,0.15625 H 9.28125 Z"
         id="path21" /><path
         style="fill:#1a1e1d;stroke-linejoin:bevel;paint-order:markers stroke fill"
         d="M 9.2945673,9.7620626 C 8.7373057,9.7619988 8.28554,10.213764 8.2856037,10.771026 c 3.085e-4,0.498024 0.2846079,0.921308 0.7769045,0.996621 L 8.8443339,14.114991 H 9.7447993 L 9.5265873,11.767647 C 10.018884,11.692334 10.303221,11.26905 10.30353,10.771026 10.303594,10.213765 9.8518285,9.7619993 9.2945673,9.7620626 Z"
         id="path19"
         sodipodi:nodetypes="cccccccc" /><path
         style="fill:#888c84;fill-opacity:1;stroke-linejoin:bevel;paint-order:markers stroke fill;filter:url(#filter22)"
         d="M 10.121745,9.6729019 C 9.8210299,9.50764 9.4942861,9.4262993 9.2170959,9.4403122 8.2634666,9.4885216 7.6112642,10.475275 8.1429424,11.402612 8.2145323,11.527477 8.3081532,11.651384 8.4261068,11.77194 7.9154492,10.444555 8.5318324,10.007485 8.7253295,9.8620216 8.9586441,9.6866253 9.9540218,9.3946374 10.580727,10.363579 10.332192,9.7811513 10.365236,9.9418346 10.121745,9.6729019 Z"
         id="path22"
         sodipodi:nodetypes="csscccc" /><path
         style="fill:none;stroke:#000000;stroke-width:0.0264583;stroke-linejoin:bevel;stroke-dasharray:none;stroke-opacity:1;paint-order:markers stroke fill"
         d="m 9.2949219,9.3652344 c -0.7717807,-8.84e-5 -1.4063382,0.6344689 -1.40625,1.4062496 3.147e-4,0.508072 0.3160426,0.932432 0.7597656,1.175782 L 8.4492188,14.078125 8.84375,14.511719 H 9.7441406 L 10.140625,14.078125 9.9414063,11.947266 c 0.4432167,-0.243515 0.7594507,-0.668017 0.7597657,-1.175782 8.9e-5,-0.7717801 -0.63447,-1.4063373 -1.4062501,-1.4062496 z"
         id="path18"
         sodipodi:nodetypes="cccccccccc" /><path
         style="fill:#888c84;fill-opacity:1;stroke-linejoin:bevel;paint-order:markers stroke fill;filter:url(#filter23)"
         d="M 8.7013519,11.938998 8.5022342,14.051653 8.8967654,14.458737 9.6911581,14.458633 8.8211145,14.25009 8.9822917,12.377214 Z"
         id="path23"
         sodipodi:nodetypes="ccccccc" /><path
         style="fill:#f7faff;fill-opacity:1;stroke-linejoin:bevel;paint-order:markers stroke fill;filter:url(#filter24)"
         d="M 9.8375383,11.947266 10.012375,13.981637 9.7623431,14.23362 9.1139679,14.267173 8.84375,14.485313 H 9.7178118 L 10.114296,14.078125 9.9150775,11.947266 c 0.2581455,-0.141832 0.7363955,-0.660693 0.7305135,-1.107458 -0.0042,-0.320295 -0.04377,-0.583905 -0.40744,-0.83727 0.479902,0.729696 0.21451,1.31456 -0.4006127,1.944728 z"
         id="path24"
         sodipodi:nodetypes="ccccccccscc" /></g></g></svg>
